<svg version="1.1" xmlns="http://www.w3.org/2000/svg" width="515" height="509">
  <path d="M0 0 C14.19571659 11.67775265 22.50941632 26.02204915 25.05834961 44.25976562 C26.547653 62.60063889 21.45729266 79.85501609 10.05834961 94.25976562 C9.4125293 95.09378906 8.76670898 95.9278125 8.10131836 96.78710938 C-3.56921985 110.83939008 -20.06137703 118.02201328 -37.94165039 120.25976562 C-42.59075904 120.51572453 -47.22493985 120.51385668 -51.88012695 120.48681641 C-53.23163342 120.48625069 -54.5831405 120.48657198 -55.93464661 120.48770142 C-59.56404094 120.48826966 -63.19330009 120.47660213 -66.82266331 120.4625535 C-70.63028317 120.44995692 -74.43790695 120.44886867 -78.24554443 120.44650269 C-85.43815729 120.44031393 -92.63070854 120.42393879 -99.8232944 120.40380371 C-108.0192968 120.3813631 -116.21530231 120.37043085 -124.41132784 120.36041284 C-141.25480461 120.33956992 -158.09821961 120.30444522 -174.94165039 120.25976562 C-174.61165039 119.26976562 -174.28165039 118.27976563 -173.94165039 117.25976562 C-171.31665039 116.08398437 -171.31665039 116.08398437 -167.94165039 114.94726562 C-149.84287739 108.20458549 -141.047373 93.43458223 -131.94165039 77.25976562 C-131.42731445 76.34759277 -130.91297852 75.43541992 -130.38305664 74.49560547 C-125.67692343 66.13352409 -120.99994016 57.75502847 -116.33374023 49.37060547 C-106.76521162 32.21292929 -97.16783998 15.03054366 -82.94165039 1.25976562 C-81.88977539 0.23302734 -81.88977539 0.23302734 -80.81665039 -0.81445312 C-59.23667302 -19.65606215 -21.37179425 -16.87132486 0 0 Z " fill="#1F9F9A" transform="translate(388.941650390625,132.740234375)"/>
  
  <path d="M0 0 C1.41002901 0.00056494 2.82005861 0.00024594 4.23008728 -0.00088501 C8.0373956 -0.00145629 11.8445766 0.01026144 15.65185547 0.02426291 C19.6383397 0.03680789 23.6248272 0.03794373 27.61132812 0.04031372 C35.15114913 0.04651745 42.69091179 0.06291322 50.23070717 0.0830127 C58.81838734 0.10540624 67.40607038 0.11637381 75.99377251 0.12640357 C93.65082927 0.14728047 111.30783181 0.18243483 128.96484375 0.22705078 C128.96484375 0.88705078 128.96484375 1.54705078 128.96484375 2.22705078 C128.11921875 2.52998047 127.27359375 2.83291016 126.40234375 3.14501953 C98.83489245 13.32618052 88.24586101 38.58624633 74.72607422 63.04296875 C64.80796661 80.97365345 54.86643969 98.25569075 41.96484375 114.22705078 C41.42730469 114.91798828 40.88976562 115.60892578 40.3359375 116.32080078 C31.52053411 126.44815716 15.00548155 131.86836131 2.02734375 133.09814453 C1.34671875 133.14068359 0.66609375 133.18322266 -0.03515625 133.22705078 C-1.21078125 133.30632812 -1.21078125 133.30632812 -2.41015625 133.38720703 C-20.71316604 134.01364933 -36.51971131 128.08429053 -50.28125 115.95361328 C-62.34286529 104.01175871 -70.19258278 89.05263651 -70.36499023 71.95532227 C-70.25317836 52.744152 -66.10891082 36.86058084 -53.03515625 22.22705078 C-52.43058594 21.54126953 -51.82601562 20.85548828 -51.203125 20.14892578 C-37.43921889 5.45995063 -19.57049654 -0.10755379 0 0 Z " fill="#1FA19C" transform="translate(174.03515625,264.77294921875)"/>
  
  <path d="M0 0 C0.85464844 0.2784375 1.70929688 0.556875 2.58984375 0.84375 C19.10847054 6.74871366 31.56192751 19.7735758 39.25 35.1875 C47.23360708 53.37475462 46.83813128 72.79268837 39.8125 91.1875 C33.05742005 106.35114216 20.48848038 119.55825344 4.98242188 125.81396484 C-13.95291607 132.6959259 -33.62722404 132.87620931 -52.18359375 124.51953125 C-57.16436455 121.83226378 -61.57127324 118.50396815 -66 115 C-67.051875 114.236875 -68.10375 113.47375 -69.1875 112.6875 C-80.89923854 101.49628317 -88.70266101 85.4850946 -89.203125 69.2421875 C-89.49920067 49.3366498 -85.41765552 31.77970627 -71.27929688 17.03100586 C-52.60484995 -1.46092333 -25.17508701 -8.91697738 0 0 Z " fill="#1F9F9A" transform="translate(373,268)"/>
  
  <path d="M0 0 C13.04118837 10.13143556 23.12733629 24.94666382 25.5390625 41.5546875 C27.97448584 62.86464176 23.73887923 80.57215121 10.76953125 97.921875 C1.10400136 109.68329873 -13.45827072 117.99487826 -28.4609375 120.5546875 C-49.64571669 122.16893044 -67.82892345 119.27749838 -84.8359375 105.8046875 C-96.43167483 95.59673788 -105.51109514 81.07218291 -107.4609375 65.5546875 C-108.88813602 43.11453937 -105.36909081 24.55873779 -90.125 7.2421875 C-66.28295556 -16.80961099 -27.34288426 -19.98313006 0 0 Z " fill="#1F9F9A" transform="translate(207.4609375,131.4453125)"/>
</svg>