<?xml version="1.0" encoding="UTF-8"?>
<svg version="1.1" xmlns="http://www.w3.org/2000/svg" width="248" height="248">
<path d="M0 0 C1.20422104 -0.00145523 2.40844208 -0.00291046 3.64915466 -0.00440979 C6.19182762 -0.00275151 8.73451069 0.00880159 11.27709961 0.02954102 C15.17279583 0.05851345 19.06713285 0.0501436 22.96289062 0.03710938 C25.43360037 0.04334624 27.90430582 0.05173677 30.375 0.0625 C31.54172745 0.05956436 32.7084549 0.05662872 33.91053772 0.05360413 C35.53758888 0.07263039 35.53758888 0.07263039 37.19750977 0.09204102 C38.6271682 0.10014549 38.6271682 0.10014549 40.08570862 0.1084137 C43.10951346 0.57077691 44.48568802 1.31675027 46.62109375 3.49609375 C48.43112861 10.13485017 45.39075967 17.28215343 43.18359375 23.46875 C42.82523437 24.50889755 42.466875 25.5490451 42.09765625 26.62071228 C40.95171414 29.9379873 39.78703999 33.24830346 38.62109375 36.55859375 C37.86849042 38.72285523 37.11717789 40.88756603 36.3671875 43.05273438 C35.24690117 46.28588146 34.1255074 49.51859686 32.99853516 52.74942017 C29.09137505 63.96011275 25.34345585 75.22290937 21.62109375 86.49609375 C22.21355896 86.48943192 22.80602417 86.48277008 23.41644287 86.47590637 C29.5806333 86.40955607 35.74472234 86.36429442 41.90917969 86.33129883 C44.21000285 86.3162088 46.51079724 86.29573448 48.81152344 86.26977539 C52.11791077 86.23340228 55.42391791 86.21636943 58.73046875 86.203125 C59.75976501 86.18764114 60.78906128 86.17215729 61.84954834 86.15620422 C62.81024231 86.15597763 63.77093628 86.15575104 64.76074219 86.15551758 C66.02649078 86.14552483 66.02649078 86.14552483 67.31781006 86.1353302 C70.1540196 86.57956598 71.52594587 87.56785226 73.62109375 89.49609375 C74.93296203 93.50645483 74.17149317 97.3014794 72.43798828 101.06396484 C70.78403954 103.84844774 69.01955468 106.51569841 67.18359375 109.18359375 C66.54196289 110.15184082 65.90033203 111.12008789 65.23925781 112.11767578 C63.96000498 114.04684565 62.67290844 115.97084074 61.37744141 117.88916016 C59.15728355 121.18452374 57.00783112 124.52134625 54.87109375 127.87109375 C53.82308594 129.49724609 53.82308594 129.49724609 52.75390625 131.15625 C50.39059829 134.85703444 48.06562475 138.58029275 45.74609375 142.30859375 C41.85534632 148.56109578 37.88139622 154.75482082 33.86767578 160.92895508 C30.408773 166.25774773 27.00511371 171.6194861 23.62109375 176.99609375 C19.01002059 184.31669814 14.35507888 191.60607846 9.6328125 198.85546875 C7.30149114 202.43574074 4.99984106 206.03415714 2.703125 209.63671875 C1.34259075 211.75660209 -0.01808538 213.87639438 -1.37890625 215.99609375 C-2.02641846 217.01864258 -2.67393066 218.04119141 -3.34106445 219.09472656 C-4.25698364 220.51543457 -4.25698364 220.51543457 -5.19140625 221.96484375 C-5.73410156 222.81498047 -6.27679688 223.66511719 -6.8359375 224.54101562 C-8.37890625 226.49609375 -8.37890625 226.49609375 -11.37890625 227.49609375 C-15.68949678 227.97504825 -17.63573953 228.05242502 -21.16015625 225.4140625 C-23.37890625 222.49609375 -23.37890625 222.49609375 -23.38671875 219.2109375 C-23.09539062 217.96441406 -22.8040625 216.71789062 -22.50390625 215.43359375 C-22.34970215 214.74313965 -22.19549805 214.05268555 -22.03662109 213.34130859 C-21.51476964 211.05115817 -20.94891199 208.77470112 -20.37890625 206.49609375 C-19.99250246 204.87523501 -19.60710384 203.25413634 -19.22265625 201.6328125 C-17.11349166 192.8802516 -14.77260467 184.19575161 -12.33569336 175.52954102 C-10.51936857 169.05491097 -8.77905205 162.56138277 -7.06640625 156.05859375 C-6.79965088 155.05658936 -6.53289551 154.05458496 -6.25805664 153.0222168 C-6.0130542 152.08676025 -5.76805176 151.15130371 -5.515625 150.1875 C-5.29608154 149.35420166 -5.07653809 148.52090332 -4.8503418 147.66235352 C-4.2725817 145.37702356 -4.2725817 145.37702356 -4.37890625 142.49609375 C-5.29305801 142.48396347 -5.29305801 142.48396347 -6.22567749 142.47158813 C-12.55203609 142.3857253 -18.87807471 142.28623048 -25.20410156 142.17871094 C-27.56700276 142.14035848 -29.92996359 142.10551683 -32.29296875 142.07421875 C-35.68381105 142.02870409 -39.07424049 141.97068756 -42.46484375 141.91015625 C-43.52633636 141.89860504 -44.58782898 141.88705383 -45.68148804 141.87515259 C-46.66235382 141.8552829 -47.6432196 141.83541321 -48.65380859 141.81494141 C-49.51984711 141.80161774 -50.38588562 141.78829407 -51.27816772 141.77456665 C-53.37890625 141.49609375 -53.37890625 141.49609375 -55.37890625 139.49609375 C-55.6796875 137.4296875 -55.6796875 137.4296875 -55.69140625 134.93359375 C-55.70816406 134.12792969 -55.72492187 133.32226562 -55.7421875 132.4921875 C-55.42080629 129.84165647 -54.88051503 127.83321006 -54.01269531 125.33349609 C-52.52150976 120.9516979 -51.17152334 116.54427018 -49.875 112.1015625 C-49.38536199 110.43553903 -48.89569581 108.76952383 -48.40600586 107.10351562 C-48.14802216 106.2236499 -47.89003845 105.34378418 -47.62423706 104.43725586 C-42.14931941 85.77484153 -36.59969564 67.13474731 -31.01712036 48.50430298 C-30.22136433 45.84862509 -29.42652673 43.19267525 -28.63253784 40.53646851 C-27.5072801 36.77233328 -26.37881785 33.00916297 -25.25 29.24609375 C-24.91814697 28.13514847 -24.58629395 27.02420319 -24.24438477 25.8795929 C-23.61254569 23.77748755 -22.97348706 21.67753541 -22.3263855 19.58007812 C-21.6725826 17.45199148 -21.03999142 15.31731233 -20.42483521 13.17773438 C-19.15000965 8.95801831 -18.00490777 5.35733883 -15.40258789 1.77709961 C-10.38989134 -0.34656763 -5.38372067 -0.05192791 0 0 Z " fill="#AAFA1F" transform="translate(116.37890625,11.50390625)"/>
<path d="M0 0 C1.20422104 -0.00145523 2.40844208 -0.00291046 3.64915466 -0.00440979 C6.19182762 -0.00275151 8.73451069 0.00880159 11.27709961 0.02954102 C15.17279583 0.05851345 19.06713285 0.0501436 22.96289062 0.03710938 C25.43360037 0.04334624 27.90430582 0.05173677 30.375 0.0625 C31.54172745 0.05956436 32.7084549 0.05662872 33.91053772 0.05360413 C35.53758888 0.07263039 35.53758888 0.07263039 37.19750977 0.09204102 C38.6271682 0.10014549 38.6271682 0.10014549 40.08570862 0.1084137 C43.10951346 0.57077691 44.48568802 1.31675027 46.62109375 3.49609375 C48.43112861 10.13485017 45.39075967 17.28215343 43.18359375 23.46875 C42.82523437 24.50889755 42.466875 25.5490451 42.09765625 26.62071228 C40.95171414 29.9379873 39.78703999 33.24830346 38.62109375 36.55859375 C37.86849042 38.72285523 37.11717789 40.88756603 36.3671875 43.05273438 C35.24690117 46.28588146 34.1255074 49.51859686 32.99853516 52.74942017 C29.09137505 63.96011275 25.34345585 75.22290937 21.62109375 86.49609375 C22.21355896 86.48943192 22.80602417 86.48277008 23.41644287 86.47590637 C29.5806333 86.40955607 35.74472234 86.36429442 41.90917969 86.33129883 C44.21000285 86.3162088 46.51079724 86.29573448 48.81152344 86.26977539 C52.11791077 86.23340228 55.42391791 86.21636943 58.73046875 86.203125 C59.75976501 86.18764114 60.78906128 86.17215729 61.84954834 86.15620422 C62.81024231 86.15597763 63.77093628 86.15575104 64.76074219 86.15551758 C66.02649078 86.14552483 66.02649078 86.14552483 67.31781006 86.1353302 C70.1540196 86.57956598 71.52594587 87.56785226 73.62109375 89.49609375 C74.93296203 93.50645483 74.17149317 97.3014794 72.43798828 101.06396484 C70.78403954 103.84844774 69.01955468 106.51569841 67.18359375 109.18359375 C66.54196289 110.15184082 65.90033203 111.12008789 65.23925781 112.11767578 C63.96000498 114.04684565 62.67290844 115.97084074 61.37744141 117.88916016 C59.15728355 121.18452374 57.00783112 124.52134625 54.87109375 127.87109375 C53.82308594 129.49724609 53.82308594 129.49724609 52.75390625 131.15625 C50.39059829 134.85703444 48.06562475 138.58029275 45.74609375 142.30859375 C41.85534632 148.56109578 37.88139622 154.75482082 33.86767578 160.92895508 C30.408773 166.25774773 27.00511371 171.6194861 23.62109375 176.99609375 C19.01002059 184.31669814 14.35507888 191.60607846 9.6328125 198.85546875 C7.30149114 202.43574074 4.99984106 206.03415714 2.703125 209.63671875 C1.34259075 211.75660209 -0.01808538 213.87639438 -1.37890625 215.99609375 C-2.02641846 217.01864258 -2.67393066 218.04119141 -3.34106445 219.09472656 C-4.25698364 220.51543457 -4.25698364 220.51543457 -5.19140625 221.96484375 C-5.73410156 222.81498047 -6.27679688 223.66511719 -6.8359375 224.54101562 C-8.37890625 226.49609375 -8.37890625 226.49609375 -11.37890625 227.49609375 C-15.68949678 227.97504825 -17.63573953 228.05242502 -21.16015625 225.4140625 C-23.37890625 222.49609375 -23.37890625 222.49609375 -23.38671875 219.2109375 C-23.09539062 217.96441406 -22.8040625 216.71789062 -22.50390625 215.43359375 C-22.34970215 214.74313965 -22.19549805 214.05268555 -22.03662109 213.34130859 C-21.51476964 211.05115817 -20.94891199 208.77470112 -20.37890625 206.49609375 C-19.99250246 204.87523501 -19.60710384 203.25413634 -19.22265625 201.6328125 C-17.11349166 192.8802516 -14.77260467 184.19575161 -12.33569336 175.52954102 C-10.51936857 169.05491097 -8.77905205 162.56138277 -7.06640625 156.05859375 C-6.79965088 155.05658936 -6.53289551 154.05458496 -6.25805664 153.0222168 C-6.0130542 152.08676025 -5.76805176 151.15130371 -5.515625 150.1875 C-5.29608154 149.35420166 -5.07653809 148.52090332 -4.8503418 147.66235352 C-4.2725817 145.37702356 -4.2725817 145.37702356 -4.37890625 142.49609375 C-5.29305801 142.48396347 -5.29305801 142.48396347 -6.22567749 142.47158813 C-12.55203609 142.3857253 -18.87807471 142.28623048 -25.20410156 142.17871094 C-27.56700276 142.14035848 -29.92996359 142.10551683 -32.29296875 142.07421875 C-35.68381105 142.02870409 -39.07424049 141.97068756 -42.46484375 141.91015625 C-43.52633636 141.89860504 -44.58782898 141.88705383 -45.68148804 141.87515259 C-46.66235382 141.8552829 -47.6432196 141.83541321 -48.65380859 141.81494141 C-49.51984711 141.80161774 -50.38588562 141.78829407 -51.27816772 141.77456665 C-53.37890625 141.49609375 -53.37890625 141.49609375 -55.37890625 139.49609375 C-55.6796875 137.4296875 -55.6796875 137.4296875 -55.69140625 134.93359375 C-55.70816406 134.12792969 -55.72492187 133.32226562 -55.7421875 132.4921875 C-55.42080629 129.84165647 -54.88051503 127.83321006 -54.01269531 125.33349609 C-52.52150976 120.9516979 -51.17152334 116.54427018 -49.875 112.1015625 C-49.38536199 110.43553903 -48.89569581 108.76952383 -48.40600586 107.10351562 C-48.14802216 106.2236499 -47.89003845 105.34378418 -47.62423706 104.43725586 C-42.14931941 85.77484153 -36.59969564 67.13474731 -31.01712036 48.50430298 C-30.22136433 45.84862509 -29.42652673 43.19267525 -28.63253784 40.53646851 C-27.5072801 36.77233328 -26.37881785 33.00916297 -25.25 29.24609375 C-24.91814697 28.13514847 -24.58629395 27.02420319 -24.24438477 25.8795929 C-23.61254569 23.77748755 -22.97348706 21.67753541 -22.3263855 19.58007812 C-21.6725826 17.45199148 -21.03999142 15.31731233 -20.42483521 13.17773438 C-19.15000965 8.95801831 -18.00490777 5.35733883 -15.40258789 1.77709961 C-10.38989134 -0.34656763 -5.38372067 -0.05192791 0 0 Z M-15.16036987 4.87609863 C-18.85358863 12.81694906 -21.25829337 21.21077513 -23.62890625 29.62109375 C-27.01691579 41.44512596 -30.74237957 53.1463185 -34.52587891 64.84863281 C-36.81854366 71.96416131 -39.02583133 79.06440908 -40.81640625 86.32495117 C-41.82264181 90.20882827 -43.018431 94.03498398 -44.19140625 97.87109375 C-45.2582948 101.41144878 -46.3193521 104.9535374 -47.37890625 108.49609375 C-47.62640625 109.32157715 -47.87390625 110.14706055 -48.12890625 110.99755859 C-52.33768775 124.00788675 -52.33768775 124.00788675 -53.37890625 137.49609375 C-52.71890625 138.48609375 -52.05890625 139.47609375 -51.37890625 140.49609375 C-49.16151986 140.93382963 -49.16151986 140.93382963 -46.56201172 140.83666992 C-45.56112518 140.83644333 -44.56023865 140.83621674 -43.52902222 140.83598328 C-42.44565582 140.82049942 -41.36228943 140.80501556 -40.24609375 140.7890625 C-39.1391214 140.78481766 -38.03214905 140.78057281 -36.89163208 140.77619934 C-33.34547915 140.75936589 -29.79988828 140.72170455 -26.25390625 140.68359375 C-23.85417486 140.66855297 -21.45443458 140.65486352 -19.0546875 140.64257812 C-13.16256766 140.60944713 -7.2707771 140.55920152 -1.37890625 140.49609375 C-1.68021101 142.07747119 -1.98572479 143.65804699 -2.29296875 145.23828125 C-2.4626416 146.1185498 -2.63231445 146.99881836 -2.80712891 147.90576172 C-3.31873766 150.22351104 -3.95709768 152.38845769 -4.75390625 154.62109375 C-6.20235432 158.74807895 -7.28109434 162.93806286 -8.31640625 167.18359375 C-9.52042573 172.10866353 -10.77583151 177.00127467 -12.19140625 181.87109375 C-14.21369891 188.88008396 -16.18920817 195.90127645 -18.12890625 202.93359375 C-18.44706299 204.06007324 -18.76521973 205.18655273 -19.09301758 206.34716797 C-21.29376998 214.31462701 -21.29376998 214.31462701 -21.37890625 222.49609375 C-19.17694601 225.12150788 -17.75917046 225.44063855 -14.37890625 225.93359375 C-10.52889122 225.37213322 -9.90741836 224.43761147 -7.37890625 221.49609375 C-5.46538417 218.72425062 -3.70402542 215.86558195 -1.94140625 212.99609375 C-0.87101614 211.27658092 0.20064014 209.55785574 1.2734375 207.83984375 C1.82499512 206.95554688 2.37655273 206.07125 2.94482422 205.16015625 C5.62115714 200.9067125 8.37070958 196.70188266 11.12109375 192.49609375 C18.23189293 181.59852867 25.20820509 170.61695245 32.06640625 159.55859375 C37.61030297 150.62530046 43.31552986 141.80736334 49.07543945 133.01171875 C53.230897 126.65625095 57.33572049 120.2747481 61.31396484 113.80664062 C63.07933199 110.93801328 64.87272851 108.1309054 66.78515625 105.35546875 C70.61679574 99.76829723 72.63398323 96.33309775 71.62109375 89.49609375 C70.61362956 88.26708913 70.61362956 88.26708913 68.56468201 88.37583923 C67.20899864 88.37917015 67.20899864 88.37917015 65.82592773 88.38256836 C64.29445351 88.38268166 64.29445351 88.38268166 62.73204041 88.38279724 C61.62163895 88.38795853 60.51123749 88.39311981 59.3671875 88.3984375 C57.67131248 88.40055992 57.67131248 88.40055992 55.94117737 88.40272522 C52.3136231 88.40834356 48.68612951 88.42089917 45.05859375 88.43359375 C42.60612068 88.43860639 40.15364665 88.4431697 37.70117188 88.44726562 C31.6744583 88.45831895 25.64778036 88.47507491 19.62109375 88.49609375 C23.65924925 72.78802757 23.65924925 72.78802757 26.62109375 65.30859375 C30.35514772 55.53330894 33.64075169 45.61373999 36.93359375 35.68359375 C37.20002686 34.8804776 37.46645996 34.07736145 37.7409668 33.24990845 C38.96416704 29.56084772 40.18525556 25.87109883 41.40356445 22.18041992 C42.17770422 19.83782053 42.96432796 17.49928196 43.76757812 15.16650391 C44.61670078 12.50983812 44.86057746 10.45763369 44.80859375 7.68359375 C44.80214844 6.91402344 44.79570312 6.14445312 44.7890625 5.3515625 C44.81940665 3.48091464 44.81940665 3.48091464 43.62109375 2.49609375 C41.85787978 2.37623598 40.08989121 2.32591859 38.32275391 2.30322266 C37.19132965 2.28715973 36.0599054 2.2710968 34.89419556 2.25454712 C29.71528817 2.21031624 24.53647116 2.1685898 19.35742188 2.14599609 C15.9416074 2.129343 12.52675691 2.08456624 9.11130714 2.03362465 C5.85686693 1.99190734 2.60232054 1.9848185 -0.65234375 1.97265625 C-2.49462051 1.93865219 -2.49462051 1.93865219 -4.37411499 1.90396118 C-6.08070786 1.90823624 -6.08070786 1.90823624 -7.82177734 1.91259766 C-8.82469818 1.9045108 -9.82761902 1.89642395 -10.8609314 1.88809204 C-13.60183982 2.26676705 -13.60183982 2.26676705 -15.16036987 4.87609863 Z " fill="#17270A" transform="translate(116.37890625,11.50390625)"/>
<path d="M0 0 C1 2 1 2 0.07421875 5.1953125 C-0.38061611 6.50779784 -0.84321388 7.81761212 -1.3125 9.125 C-1.77006175 10.41816596 -2.22448421 11.71244694 -2.67578125 13.0078125 C-2.88114502 13.58160645 -3.08650879 14.15540039 -3.2980957 14.74658203 C-4.35128145 18.1277662 -5.15873645 21.56015685 -6 25 C-5.36328873 24.99777939 -4.72657745 24.99555878 -4.0705719 24.99327087 C2.53115276 24.9712196 9.13286704 24.95609407 15.73461914 24.94506836 C18.20142033 24.94002644 20.66821852 24.93319309 23.13500977 24.92456055 C26.67204529 24.91248875 30.20904145 24.90677044 33.74609375 24.90234375 C34.85649521 24.89718246 35.96689667 24.89202118 37.11094666 24.88670349 C38.64242088 24.88659019 38.64242088 24.88659019 40.20483398 24.88647461 C41.10862289 24.884254 42.0124118 24.88203339 42.94358826 24.87974548 C45 25 45 25 46 26 C46.77096028 33.13734359 44.82312362 36.99681347 40.9375 42.875 C40.18412354 44.05908447 40.18412354 44.05908447 39.41552734 45.26708984 C36.23896309 50.22416171 32.94572305 55.09792415 29.50390625 59.875 C27.18085791 63.15743713 25.09644446 66.56945452 23 70 C21.73660178 66.20980534 22.50280985 64.62477616 24 61 C24.66 60.67 25.32 60.34 26 60 C26.65772428 56.97065509 26.65772428 56.97065509 27 54 C26.01 54 25.02 54 24 54 C24.66 52.68 25.32 51.36 26 50 C26.66 50 27.32 50 28 50 C28.33 50.66 28.66 51.32 29 52 C30.32 52 31.64 52 33 52 C32.9175 51.2575 32.835 50.515 32.75 49.75 C33.07344522 46.19210255 34.37803642 45.30414981 37 43 C37.495 42.01 37.495 42.01 38 41 C38.66 41 39.32 41 40 41 C40 39.68 40 38.36 40 37 C40.99 37 41.98 37 43 37 C43 34.03 43 31.06 43 28 C41.54182861 27.98018066 40.08365723 27.96036133 38.58129883 27.93994141 C33.16722451 27.86382413 27.7534168 27.77511571 22.33959961 27.68261719 C19.99720527 27.64435284 17.65475267 27.60949554 15.31225586 27.578125 C11.943636 27.53241975 8.57541627 27.47443339 5.20703125 27.4140625 C3.63801811 27.39673569 3.63801811 27.39673569 2.03730774 27.37905884 C0.56634895 27.3492543 0.56634895 27.3492543 -0.93432617 27.31884766 C-1.79370285 27.30552399 -2.65307953 27.29220032 -3.53849792 27.2784729 C-6.30892233 26.96505122 -8.44433212 26.08958348 -11 25 C-12.9924325 24.62406934 -14.9918674 24.28020455 -17 24 C-17 22.68 -17 21.36 -17 20 C-14.36 20.33 -11.72 20.66 -9 21 C-8.690625 20.030625 -8.38125 19.06125 -8.0625 18.0625 C-7 15 -7 15 -6 14 C-5.92773498 12.14712498 -5.9161878 10.29166122 -5.9375 8.4375 C-5.94652344 7.42558594 -5.95554688 6.41367188 -5.96484375 5.37109375 C-5.97644531 4.58863281 -5.98804688 3.80617188 -6 3 C-5.195625 2.690625 -4.39125 2.38125 -3.5625 2.0625 C-1.10919595 1.23664655 -1.10919595 1.23664655 0 0 Z " fill="#ACE84B" transform="translate(142,75)"/>
<path d="M0 0 C1.20422104 -0.00145523 2.40844208 -0.00291046 3.64915466 -0.00440979 C6.19182762 -0.00275151 8.73451069 0.00880159 11.27709961 0.02954102 C15.17279583 0.05851345 19.06713285 0.0501436 22.96289062 0.03710938 C25.43360037 0.04334624 27.90430582 0.05173677 30.375 0.0625 C31.54172745 0.05956436 32.7084549 0.05662872 33.91053772 0.05360413 C35.53758888 0.07263039 35.53758888 0.07263039 37.19750977 0.09204102 C38.6271682 0.10014549 38.6271682 0.10014549 40.08570862 0.1084137 C43.06700889 0.56427763 44.45807702 1.42205959 46.62109375 3.49609375 C47.01171875 5.7578125 47.01171875 5.7578125 46.87109375 8.18359375 C46.835 8.99183594 46.79890625 9.80007812 46.76171875 10.6328125 C46.7153125 11.24769531 46.66890625 11.86257812 46.62109375 12.49609375 C46.29109375 12.49609375 45.96109375 12.49609375 45.62109375 12.49609375 C44.63109375 8.04109375 44.63109375 8.04109375 43.62109375 3.49609375 C24.81109375 3.49609375 6.00109375 3.49609375 -13.37890625 3.49609375 C-17.58672773 12.60697961 -17.58672773 12.60697961 -20.58984375 21.83203125 C-20.76362045 22.47018265 -20.93739716 23.10833405 -21.11643982 23.76582336 C-21.48229024 25.11064342 -21.8443839 26.45649088 -22.20278931 27.80331421 C-23.14707944 31.34627156 -24.12335622 34.88034258 -25.1015625 38.4140625 C-25.29439316 39.11165176 -25.48722382 39.80924103 -25.68589783 40.52796936 C-28.02436729 48.91615822 -30.82121233 57.13924778 -33.65625 65.37011719 C-36.0110037 72.29754801 -38.08295519 79.28077291 -39.83666992 86.3840332 C-40.7476522 89.93239325 -41.80216942 93.43256764 -42.87890625 96.93359375 C-43.09160156 97.65224609 -43.30429688 98.37089844 -43.5234375 99.11132812 C-44.08199808 100.92579333 -44.72404643 102.71411942 -45.37890625 104.49609375 C-46.36890625 104.99109375 -46.36890625 104.99109375 -47.37890625 105.49609375 C-44.69780137 94.34697032 -41.64647048 83.35812671 -38.31640625 72.38671875 C-37.83817972 70.80174071 -37.36023999 69.21667612 -36.88256836 67.63153076 C-35.88986273 64.34007013 -34.89468217 61.04937262 -33.89746094 57.75927734 C-32.62966375 53.57624041 -31.36674867 49.39174975 -30.10551453 45.20672989 C-29.12201091 41.94434604 -28.13664459 38.68252721 -27.15066528 35.42089081 C-26.68466944 33.87908538 -26.21906099 32.3371628 -25.75387573 30.79511261 C-24.69443711 27.2856709 -23.62842233 23.77861866 -22.54345703 20.27697754 C-21.79216631 17.83780273 -21.05990132 15.39264737 -20.35107422 12.9407959 C-19.09461845 8.78188958 -17.96619199 5.30407415 -15.40258789 1.77709961 C-10.38989134 -0.34656763 -5.38372067 -0.05192791 0 0 Z " fill="#142307" transform="translate(116.37890625,11.50390625)"/>
<path d="M0 0 C0.33 0 0.66 0 1 0 C1.47454068 7.53505022 0.28379175 13.48584505 -2.25390625 20.5546875 C-2.76170876 22.02713425 -2.76170876 22.02713425 -3.2797699 23.52932739 C-4.35967868 26.6497578 -5.46060148 29.76227589 -6.5625 32.875 C-7.27549539 34.92399016 -7.98709481 36.97346664 -8.69726562 39.0234375 C-11.45210664 46.9565493 -14.24569284 54.87578573 -17.05419922 62.79003906 C-17.53795265 64.15879684 -17.53795265 64.15879684 -18.03147888 65.5552063 C-18.63543018 67.2635367 -19.24222728 68.97086481 -19.85243225 70.67697144 C-20.12147873 71.43857574 -20.39052521 72.20018005 -20.66772461 72.98486328 C-20.90204697 73.64302032 -21.13636932 74.30117737 -21.37779236 74.97927856 C-22.08462105 77.27482076 -22.52894877 79.64474385 -23 82 C-7.82 82 7.36 82 23 82 C23 82.33 23 82.66 23 83 C7.16 83 -8.68 83 -25 83 C-23.87555721 74.00445765 -23.87555721 74.00445765 -22.79296875 70.890625 C-22.54200439 70.15376465 -22.29104004 69.4169043 -22.0324707 68.65771484 C-21.75363037 67.86316895 -21.47479004 67.06862305 -21.1875 66.25 C-20.5591443 64.41431958 -19.93160829 62.57835847 -19.3046875 60.7421875 C-18.94729492 59.7015918 -18.58990234 58.66099609 -18.22167969 57.58886719 C-16.7964068 53.40191446 -15.39980121 49.20592432 -14.0078125 45.0078125 C-13.74573502 44.21797974 -13.48365753 43.42814697 -13.21363831 42.61437988 C-12.15250488 39.41598789 -11.09163097 36.21751048 -10.03182983 33.01867676 C-9.27926334 30.74891683 -8.52506253 28.4797122 -7.76953125 26.2109375 C-7.5303447 25.49259232 -7.29115814 24.77424713 -7.04472351 24.03413391 C-5.37645937 19.05287121 -3.61106742 14.11506832 -1.74389648 9.2043457 C-0.70805503 6.13489624 -0.28623983 3.22019808 0 0 Z " fill="#273E12" transform="translate(161,17)"/>
<path d="M0 0 C1 2 1 2 0.07421875 5.1953125 C-0.38061611 6.50779784 -0.84321388 7.81761212 -1.3125 9.125 C-1.77006175 10.41816596 -2.22448421 11.71244694 -2.67578125 13.0078125 C-2.88114502 13.58160645 -3.08650879 14.15540039 -3.2980957 14.74658203 C-4.34921927 18.12114571 -5.14276296 21.57105185 -6 25 C10.83 25 27.66 25 45 25 C45 25.99 45 26.98 45 28 C44.67 27.67 44.34 27.34 44 27 C42.34966155 26.88747962 40.69461176 26.84322578 39.04052734 26.82641602 C37.98207611 26.81292618 36.92362488 26.79943634 35.83309937 26.78553772 C34.67903595 26.77509933 33.52497253 26.76466095 32.3359375 26.75390625 C29.91015285 26.72095256 27.48437169 26.68774119 25.05859375 26.65429688 C21.22056619 26.60696529 17.38255122 26.56257749 13.54443359 26.52319336 C9.84977821 26.48337101 6.1554252 26.4318316 2.4609375 26.37890625 C1.31901947 26.3704921 0.17710144 26.36207794 -0.99942017 26.35340881 C-6.70630356 26.26525483 -11.61272555 25.93286475 -17 24 C-17 22.68 -17 21.36 -17 20 C-14.36 20.33 -11.72 20.66 -9 21 C-8.690625 20.030625 -8.38125 19.06125 -8.0625 18.0625 C-7 15 -7 15 -6 14 C-5.92773498 12.14712498 -5.9161878 10.29166122 -5.9375 8.4375 C-5.94652344 7.42558594 -5.95554688 6.41367188 -5.96484375 5.37109375 C-5.97644531 4.58863281 -5.98804688 3.80617188 -6 3 C-5.195625 2.690625 -4.39125 2.38125 -3.5625 2.0625 C-1.10919595 1.23664655 -1.10919595 1.23664655 0 0 Z " fill="#91CA38" transform="translate(142,75)"/>
<path d="M0 0 C0.33 0 0.66 0 1 0 C1.19361753 5.51809965 0.81170643 9.77802264 -1 15 C-1.33 15.33 -1.66 15.66 -2 16 C-2.13329564 17.68544926 -2.23119813 19.37374396 -2.3125 21.0625 C-2.69036022 25.7857527 -3.68844488 28.93915353 -6.015625 33.01171875 C-7.47617662 35.96180119 -8.01442034 38.99445846 -8.60546875 42.21484375 C-9 44 -9 44 -10 45 C-10.36760731 47.32817964 -10.70241581 49.6618385 -11 52 C-11.66 52 -12.32 52 -13 52 C-13.103125 53.093125 -13.20625 54.18625 -13.3125 55.3125 C-13.97307727 58.85559629 -14.2027092 59.93243723 -17 62 C-16.59023562 57.57454467 -15.94632 53.52946645 -14.62890625 49.28125 C-14.2253894 47.96761475 -14.2253894 47.96761475 -13.8137207 46.62744141 C-13.54519287 45.76038574 -13.27666504 44.89333008 -13 44 C-12.5454495 42.49782644 -12.09226973 40.99523726 -11.640625 39.4921875 C-11.4152002 38.74420898 -11.18977539 37.99623047 -10.95751953 37.22558594 C-7.2292247 24.83910471 -3.60583767 12.42260935 0 0 Z " fill="#A2E33D" transform="translate(82,76)"/>
<path d="M0 0 C0.33 0 0.66 0 1 0 C1.3690205 10.55808656 1.3690205 10.55808656 -1 15 C-0.34 15 0.32 15 1 15 C0.625 17.9375 0.625 17.9375 0 21 C-0.66 21.33 -1.32 21.66 -2 22 C-4.09498257 25.43577142 -5.16349903 28.35099038 -5.5625 32.3125 C-5.706875 33.529375 -5.85125 34.74625 -6 36 C-6.99 36.495 -6.99 36.495 -8 37 C-8.90725434 39.11327425 -8.90725434 39.11327425 -9.625 41.5625 C-9.88539062 42.38878906 -10.14578125 43.21507812 -10.4140625 44.06640625 C-10.60742188 44.70449219 -10.80078125 45.34257812 -11 46 C-12.06052738 42.76090554 -11.91706262 40.76126932 -10.99609375 37.5 C-10.75262207 36.62166504 -10.50915039 35.74333008 -10.25830078 34.83837891 C-9.98743652 33.90171387 -9.71657227 32.96504883 -9.4375 32 C-9.16663574 31.03626465 -8.89577148 30.0725293 -8.61669922 29.07958984 C-5.86374392 19.35142331 -2.95697703 9.66784688 0 0 Z " fill="#ADFA27" transform="translate(114,159)"/>
<path d="M0 0 C1.00514145 0.00142502 2.0102829 0.00285004 3.04588318 0.00431824 C4.18368729 0.00124161 5.32149139 -0.00183502 6.49377441 -0.00500488 C7.72712021 0.00218063 8.960466 0.00936615 10.23118591 0.01676941 C12.1211454 0.01745674 12.1211454 0.01745674 14.04928589 0.01815796 C16.71674492 0.02118352 19.38386037 0.02801231 22.05125427 0.04142761 C25.47691995 0.05843475 28.90243827 0.06224147 32.32814121 0.06148243 C35.58750411 0.06181906 38.84683589 0.07065283 42.10618591 0.07926941 C43.95924095 0.08093864 43.95924095 0.08093864 45.84973145 0.0826416 C47.55170937 0.09221138 47.55170937 0.09221138 49.28807068 0.10197449 C50.79458946 0.10769218 50.79458946 0.10769218 52.33154297 0.11352539 C54.60227966 0.24723816 54.60227966 0.24723816 55.60227966 1.24723816 C56.12854475 8.54916621 54.68254206 14.02036045 52.10227966 20.80973816 C51.76841248 21.72303894 51.43454529 22.63633972 51.09056091 23.57731628 C50.27387353 25.80570614 49.44439684 28.02836179 48.60227966 30.24723816 C48.27227966 30.24723816 47.94227966 30.24723816 47.60227966 30.24723816 C47.54821844 28.31004438 47.50945942 26.37241894 47.47727966 24.43473816 C47.45407654 23.35579285 47.43087341 22.27684753 47.40696716 21.16520691 C47.60227966 18.24723816 47.60227966 18.24723816 49.60227966 15.24723816 C50.26227966 15.24723816 50.92227966 15.24723816 51.60227966 15.24723816 C51.60227966 13.26723816 51.60227966 11.28723816 51.60227966 9.24723816 C52.59227966 8.91723816 53.58227966 8.58723816 54.60227966 8.24723816 C54.10727966 5.27723816 54.10727966 5.27723816 53.60227966 2.24723816 C52.91989731 2.24723816 52.23751495 2.24723816 51.53445435 2.24723816 C32.89039612 2.24723816 14.24633789 2.24723816 -4.39772034 2.24723816 C-2.39772034 0.24723816 -2.39772034 0.24723816 0 0 Z " fill="#7AB135" transform="translate(105.39772033691406,13.752761840820313)"/>
<path d="M0 0 C-1.25993911 3.37869235 -2.69676166 6.29728887 -4.6875 9.30078125 C-5.48111938 10.50758545 -5.48111938 10.50758545 -6.29077148 11.73876953 C-7.1368396 13.01276611 -7.1368396 13.01276611 -8 14.3125 C-9.17948016 16.10735399 -10.35785228 17.90293658 -11.53515625 19.69921875 C-12.12055176 20.5917334 -12.70594727 21.48424805 -13.30908203 22.40380859 C-15.72800131 26.11775425 -18.09278914 29.86387374 -20.4375 33.625 C-20.84154053 34.27251221 -21.24558105 34.92002441 -21.66186523 35.5871582 C-24.49217642 40.14190518 -27.24878244 44.73727967 -29.94140625 49.375 C-30.29074219 49.91125 -30.64007813 50.4475 -31 51 C-31.33 51 -31.66 51 -32 51 C-31.80696811 42.9453055 -31.80696811 42.9453055 -28.8125 39.4375 C-27.884375 38.633125 -26.95625 37.82875 -26 37 C-21.14732244 31.74204553 -21.14732244 31.74204553 -19.625 25 C-19.74875 24.01 -19.8725 23.02 -20 22 C-18.35 22.33 -16.7 22.66 -15 23 C-15 21.68 -15 20.36 -15 19 C-14.34 19 -13.68 19 -13 19 C-12.67 17.68 -12.34 16.36 -12 15 C-11.34 15 -10.68 15 -10 15 C-10 14.01 -10 13.02 -10 12 C-9.34 12 -8.68 12 -8 12 C-8 10.35 -8 8.7 -8 7 C-7.01 7 -6.02 7 -5 7 C-5 5.68 -5 4.36 -5 3 C-2.64285714 0 -2.64285714 0 0 0 Z " fill="#A5E24A" transform="translate(164,145)"/>
<path d="M0 0 C1.09768707 -0.00307663 2.19537415 -0.00615326 3.32632446 -0.00932312 C5.10297989 0.00145515 5.10297989 0.00145515 6.91552734 0.01245117 C8.73677628 0.0131385 8.73677628 0.0131385 10.59481812 0.01383972 C13.16201759 0.01686229 15.72921522 0.02474868 18.29638672 0.03710938 C22.24241575 0.05537803 26.18821043 0.057619 30.13427734 0.05737305 C32.62386272 0.06228764 35.1134465 0.0681157 37.60302734 0.07495117 C38.79151276 0.076064 39.97999817 0.07717682 41.20449829 0.07832336 C42.29588104 0.08470322 43.38726379 0.09108307 44.51171875 0.09765625 C45.47751862 0.10146805 46.44331848 0.10527985 47.43838501 0.10920715 C49.62646484 0.24291992 49.62646484 0.24291992 50.62646484 1.24291992 C50.66727267 3.24250356 50.66900841 5.24337246 50.62646484 7.24291992 C48.62646484 3.49291992 48.62646484 3.49291992 48.62646484 1.24291992 C41.45441127 1.28456607 34.28313514 1.35687007 27.11157227 1.45043945 C24.67219056 1.4786554 22.23271732 1.49986677 19.79321289 1.51391602 C16.28533036 1.53533602 12.77854913 1.58198427 9.27099609 1.63354492 C8.18123978 1.63477356 7.09148346 1.6360022 5.96870422 1.63726807 C-0.0908619 1.73636471 -0.0908619 1.73636471 -5.55444336 4.14453125 C-7.56107274 6.45925136 -8.03991493 7.67262504 -8.37353516 10.68041992 C-9.16966726 15.41038125 -10.69517167 17.24214971 -14.37353516 20.24291992 C-9.75172747 -0.01436481 -9.75172747 -0.01436481 0 0 Z " fill="#A9ED45" transform="translate(109.37353515625,14.757080078125)"/>
<path d="M0 0 C1.20148487 4.08110926 0.69292632 7.60719849 0.0625 11.75 C-0.03740234 12.44738281 -0.13730469 13.14476562 -0.24023438 13.86328125 C-0.48665873 15.57651726 -0.74240955 17.28840725 -1 19 C-1.66 19 -2.32 19 -3 19 C-2.87625 20.670625 -2.87625 20.670625 -2.75 22.375 C-2.72690745 28.85245918 -5.4585464 34.68781959 -9 40 C-9.66 40 -10.32 40 -11 40 C-10.25382024 34.06081242 -8.40558432 28.50374783 -6.625 22.8125 C-4.26999253 15.24354592 -2.03500202 7.66179202 0 0 Z " fill="#8BC13C" transform="translate(94,36)"/>
<path d="M0 0 C1.28826661 3.86479984 0.43958402 5.37491237 -0.87109375 9.19921875 C-1.28037109 10.40771484 -1.68964844 11.61621094 -2.11132812 12.86132812 C-2.55319189 14.13678581 -2.99525171 15.41217559 -3.4375 16.6875 C-3.87647475 17.97432868 -4.31463577 19.26143525 -4.75195312 20.54882812 C-5.82664643 23.70204915 -6.90962616 26.85217387 -8 30 C-8.33 30 -8.66 30 -9 30 C-9.06058594 29.38511719 -9.12117187 28.77023438 -9.18359375 28.13671875 C-9.26738281 27.32847656 -9.35117188 26.52023438 -9.4375 25.6875 C-9.51871094 24.88699219 -9.59992188 24.08648437 -9.68359375 23.26171875 C-9.95265693 20.83912821 -9.95265693 20.83912821 -11 18 C-9.68 18 -8.36 18 -7 18 C-6.855625 16.783125 -6.71125 15.56625 -6.5625 14.3125 C-5.7025 7.57583333 -5.7025 7.57583333 -5 5 C-4.34 4.67 -3.68 4.34 -3 4 C-2.67 3.01 -2.34 2.02 -2 1 C-1.34 0.67 -0.68 0.34 0 0 Z " fill="#9EDD3C" transform="translate(152,44)"/>
<path d="M0 0 C1 3 1 3 0.18310547 4.88183594 C-0.25114746 5.57567383 -0.68540039 6.26951172 -1.1328125 6.984375 C-1.60976562 7.75523437 -2.08671875 8.52609375 -2.578125 9.3203125 C-3.08859375 10.12210938 -3.5990625 10.92390625 -4.125 11.75 C-4.61226562 12.53632813 -5.09953125 13.32265625 -5.6015625 14.1328125 C-14.0689576 27.68965253 -14.0689576 27.68965253 -18 29 C-20.33299825 29.03954234 -22.66708189 29.04401732 -25 29 C-25.33 28.01 -25.66 27.02 -26 26 C-22.7 26 -19.4 26 -16 26 C-15.60578857 24.91972534 -15.60578857 24.91972534 -15.20361328 23.81762695 C-13.96632235 20.92116151 -12.50251724 18.52645736 -10.7421875 15.91796875 C-10.11699219 14.98662109 -9.49179688 14.05527344 -8.84765625 13.09570312 C-8.19667969 12.13599609 -7.54570313 11.17628906 -6.875 10.1875 C-6.21628906 9.20845703 -5.55757812 8.22941406 -4.87890625 7.22070312 C-3.25674211 4.81096653 -1.63033154 2.40421506 0 0 Z " fill="#283D13" transform="translate(123,210)"/>
<path d="M0 0 C0.33 0 0.66 0 1 0 C1.73978878 8.84265174 -0.60626266 16.11359196 -3.53491211 24.31640625 C-4.3185641 26.51702899 -5.07378855 28.72601562 -5.82617188 30.9375 C-6.31607328 32.34432045 -6.80755269 33.7505926 -7.30078125 35.15625 C-7.52590897 35.81451782 -7.75103668 36.47278564 -7.98298645 37.15100098 C-9.24997999 40.6538433 -9.79863158 41.86575439 -13 44 C-10.59954037 34.56436541 -7.43550687 25.47507921 -4.140625 16.3203125 C-2.21100273 10.86369854 -0.48463915 5.7822464 0 0 Z " fill="#21330F" transform="translate(161,17)"/>
<path d="M0 0 C0.33 0 0.66 0 1 0 C0.41573614 5.32919463 -0.47278173 10.3584151 -1.8125 15.5625 C-1.98555664 16.2443335 -2.15861328 16.92616699 -2.33691406 17.62866211 C-3.23394245 21.1395989 -4.17104888 24.63669266 -5.15234375 28.125 C-5.33627686 28.78685303 -5.52020996 29.44870605 -5.7097168 30.13061523 C-6.2200232 31.95531229 -6.74245062 33.77660695 -7.265625 35.59765625 C-8.37610958 40.74250767 -8.92766159 45.42552876 -6 50 C-7.9375 49.1875 -7.9375 49.1875 -10 48 C-14.06523983 35.80428052 -3.78524656 11.9534102 0 0 Z " fill="#17250A" transform="translate(104,188)"/>
<path d="M0 0 C0.33 0 0.66 0 1 0 C1.261527 4.70748604 1.03992462 8.28204968 -0.5 12.75 C-2.40991693 18.50665104 -2.27865686 23.99339648 -2 30 C-3.32 29.34 -4.64 28.68 -6 28 C-6.42771205 21.57540865 -4.85687895 16.18099979 -3 10.0625 C-2.57074219 8.6074707 -2.57074219 8.6074707 -2.1328125 7.12304688 C-1.43025583 4.74606348 -0.71915599 2.37200342 0 0 Z " fill="#9AD147" transform="translate(101,206)"/>
<path d="M0 0 C0.33 0 0.66 0 1 0 C1.23407472 6.67112964 0.09468137 11.78034892 -2.0625 18.125 C-2.91721295 20.7461197 -3.5214698 23.28832885 -4 26 C-4.66 26 -5.32 26 -6 26 C-6.66 28.64 -7.32 31.28 -8 34 C-9.08398702 29.66405192 -8.51607512 28.37340189 -6.890625 24.3984375 C-5.51694606 20.69914423 -4.68324625 16.88707169 -3.76171875 13.0546875 C-2.66449602 8.65454302 -1.35015854 4.32816779 0 0 Z " fill="#82B637" transform="translate(82,76)"/>
<path d="M0 0 C0.33 0 0.66 0 1 0 C1.22742222 6.14040005 0.86360591 12.09858129 -1 18 C-1.66 18.33 -2.32 18.66 -3 19 C-3.90725434 21.11327425 -3.90725434 21.11327425 -4.625 23.5625 C-4.88539062 24.38878906 -5.14578125 25.21507812 -5.4140625 26.06640625 C-5.60742188 26.70449219 -5.80078125 27.34257812 -6 28 C-7.18084557 24.54389113 -6.80189367 22.35044174 -5.8203125 18.8671875 C-5.55089844 17.89652344 -5.28148438 16.92585938 -5.00390625 15.92578125 C-4.71386719 14.91902344 -4.42382812 13.91226563 -4.125 12.875 C-3.84269531 11.86050781 -3.56039062 10.84601563 -3.26953125 9.80078125 C-1.17766907 2.35533815 -1.17766907 2.35533815 0 0 Z " fill="#92C842" transform="translate(109,177)"/>
<path d="M0 0 C1.31801195 3.63941363 0.65231081 5.68381211 -0.6875 9.25 C-2.73101848 14.98457955 -4.2472655 20.72962169 -5.60424805 26.65527344 C-6.38056006 29.94270472 -7.10152914 32.15229372 -9 35 C-8.66414159 28.17087905 -7.34277391 21.8433414 -5.625 15.25 C-5.41593018 14.43426514 -5.20686035 13.61853027 -4.99145508 12.77807617 C-3.76802944 8.21345224 -2.29777952 4.16556521 0 0 Z " fill="#20320D" transform="translate(114,155)"/>
<path d="M0 0 C2 0 2 0 3.625 1.375 C5 3 5 3 5 5 C4.34 5 3.68 5 3 5 C3.12375 5.804375 3.2475 6.60875 3.375 7.4375 C2.83066411 12.60869096 0.05612445 15.90697618 -3 20 C-4.26339822 16.20980534 -3.49719015 14.62477616 -2 11 C-1.34 10.67 -0.68 10.34 0 10 C0.65772428 6.97065509 0.65772428 6.97065509 1 4 C0.01 4 -0.98 4 -2 4 C-1.34 2.68 -0.68 1.36 0 0 Z " fill="#AEF82F" transform="translate(168,125)"/>
<path d="M0 0 C0.33 0.66 0.66 1.32 1 2 C0.33657289 3.99028133 -0.33402627 5.97833613 -1.03125 7.95703125 C-2.27015436 11.84858971 -3.24261183 15.7782451 -4.1875 19.75 C-4.36627686 20.4829126 -4.54505371 21.2158252 -4.72924805 21.97094727 C-6.44626558 28.5876095 -6.44626558 28.5876095 -5 35 C-5.99 34.67 -6.98 34.34 -8 34 C-8.64268309 26.58772167 -7.78947284 20.13819816 -5.6875 13.0625 C-5.47456299 12.3413501 -5.26162598 11.6202002 -5.04223633 10.87719727 C-3.79526873 6.89758262 -2.33436078 3.49811836 0 0 Z " fill="#2D4415" transform="translate(70,116)"/>
<path d="M0 0 C1 2 1 2 0.07421875 5.3359375 C-0.38032599 6.68490898 -0.84292844 8.03118546 -1.3125 9.375 C-1.53873047 10.04789063 -1.76496094 10.72078125 -1.99804688 11.4140625 C-3.14230325 14.7643924 -4.41199914 17.82399829 -6 21 C-6 15.06 -6 9.12 -6 3 C-4.35 2.34 -2.7 1.68 -1 1 C-0.67 0.67 -0.34 0.34 0 0 Z " fill="#9AD93A" transform="translate(142,75)"/>
<path d="M0 0 C0.33 0 0.66 0 1 0 C1.65031566 7.47863013 -0.86854257 13.80281386 -5 20 C-5.66 20 -6.32 20 -7 20 C-6.51421457 16.87709365 -6.0013988 14.00419641 -5 11 C-4.34 11 -3.68 11 -3 11 C-2.67 9.35 -2.34 7.7 -2 6 C-1.34 6 -0.68 6 0 6 C0 4.02 0 2.04 0 0 Z " fill="#A1DF3C" transform="translate(90,56)"/>
<path d="M0 0 C0.99 0.33 1.98 0.66 3 1 C1.7143824 3.14967221 0.42192095 5.29466349 -0.875 7.4375 C-1.23980469 8.04916016 -1.60460937 8.66082031 -1.98046875 9.29101562 C-4.7734375 13.88671875 -4.7734375 13.88671875 -7 15 C-8.99960012 15.039992 -11.00047242 15.04346799 -13 15 C-13 14.67 -13 14.34 -13 14 C-11.35 14 -9.7 14 -8 14 C-7.731875 13.46375 -7.46375 12.9275 -7.1875 12.375 C-5.79166667 9.58333333 -4.39583333 6.79166667 -3 4 C-2.01 4 -1.02 4 0 4 C0 2.68 0 1.36 0 0 Z " fill="#A3DF4A" transform="translate(112,222)"/>
<path d="M0 0 C0 3.29232349 -0.46607765 4.10324633 -2.1875 6.79296875 C-2.63867188 7.50517578 -3.08984375 8.21738281 -3.5546875 8.95117188 C-4.03164062 9.68916016 -4.50859375 10.42714844 -5 11.1875 C-5.47695312 11.93708984 -5.95390625 12.68667969 -6.4453125 13.45898438 C-7.62424956 15.30991556 -8.80929579 17.15662521 -10 19 C-11 17 -11 17 -10.28125 14.734375 C-8.88160016 11.74731741 -7.2737863 9.03093615 -5.5 6.25 C-4.58734375 4.80367187 -4.58734375 4.80367187 -3.65625 3.328125 C-2 1 -2 1 0 0 Z " fill="#1E300E" transform="translate(154,163)"/>
<path d="M0 0 C0.33 0 0.66 0 1 0 C2.0664908 7.99868098 -0.42705272 12.05869901 -4.95703125 18.59375 C-7 21 -7 21 -10 22 C-8.22652213 17.07169214 -5.50083076 13.11659881 -2.55859375 8.81640625 C-0.89481961 5.80993719 -0.36500578 3.39505373 0 0 Z " fill="#2C4216" transform="translate(188,103)"/>
<path d="M0 0 C0.66 0 1.32 0 2 0 C0.56691865 3.95906817 -1.33141949 7.28718181 -3.625 10.8125 C-4.57246094 12.27623047 -4.57246094 12.27623047 -5.5390625 13.76953125 C-6.02117187 14.50558594 -6.50328125 15.24164063 -7 16 C-8.13583456 12.28272326 -7.66670026 10.52948291 -6 7 C-5.34 7 -4.68 7 -4 7 C-3.71125 6.21625 -3.4225 5.4325 -3.125 4.625 C-2 2 -2 2 0 0 Z " fill="#A4E343" transform="translate(123,206)"/>
<path d="M0 0 C1.39195915 4.17587745 -0.17676781 6.13474776 -2 10 C-2.66 10 -3.32 10 -4 10 C-4.33 10.99 -4.66 11.98 -5 13 C-5.33 10.69 -5.66 8.38 -6 6 C-5.01 5.34 -4.02 4.68 -3 4 C-2.67 3.01 -2.34 2.02 -2 1 C-1.34 0.67 -0.68 0.34 0 0 Z " fill="#A6E93A" transform="translate(152,44)"/>
<path d="M0 0 C0.33 0 0.66 0 1 0 C1 2.97 1 5.94 1 9 C0.01 9 -0.98 9 -2 9 C-2.33 8.01 -2.66 7.02 -3 6 C-3.66 7.98 -4.32 9.96 -5 12 C-5.33 12 -5.66 12 -6 12 C-6.3125 9.3125 -6.3125 9.3125 -6 6 C-3.5625 3.1875 -3.5625 3.1875 -1 1 C-0.67 0.67 -0.34 0.34 0 0 Z " fill="#ADFA2E" transform="translate(106,17)"/>
<path d="M0 0 C0.33 0 0.66 0 1 0 C1.33249053 6.20648988 0.54922986 10.31325646 -2 16 C-2.66 16.66 -3.32 17.32 -4 18 C-3.41632611 11.69632197 -1.95928381 6.01339937 0 0 Z " fill="#8DC042" transform="translate(69,120)"/>
<path d="M0 0 C0.33 0 0.66 0 1 0 C1.1799928 5.21979128 0.97094808 9.07262981 -1 14 C-1.66 14 -2.32 14 -3 14 C-3.33 14.99 -3.66 15.98 -4 17 C-3.35729017 11.0870696 -1.80996216 5.65755469 0 0 Z " fill="#84B63C" transform="translate(101,206)"/>
<path d="M0 0 C1.39143652 3.86510145 0.96911452 7.05431946 0 11 C-2.5625 13.9375 -2.5625 13.9375 -5 16 C-4.54762239 14.08191891 -4.08785537 12.16557967 -3.625 10.25 C-3.24214844 8.64898438 -3.24214844 8.64898438 -2.8515625 7.015625 C-2.12466459 4.44147278 -1.2973776 2.32399814 0 0 Z " fill="#8CC13C" transform="translate(100,19)"/>
<path d="M0 0 C0.33 0 0.66 0 1 0 C1.21755666 5.4389165 1.10428384 9.87080814 -1 15 C-1.33 15 -1.66 15 -2 15 C-2.05406122 13.06280622 -2.09282025 11.12518079 -2.125 9.1875 C-2.14820313 8.10855469 -2.17140625 7.02960937 -2.1953125 5.91796875 C-2 3 -2 3 0 0 Z " fill="#9EE437" transform="translate(155,29)"/>
<path d="M0 0 C0.33 0.66 0.66 1.32 1 2 C0.14453125 4.3125 0.14453125 4.3125 -1.1875 7 C-1.61417969 7.886875 -2.04085937 8.77375 -2.48046875 9.6875 C-4.12049388 12.18337372 -5.2451887 12.96178418 -8 14 C-6.6744419 10.37723685 -5.05653045 7.36494652 -2.875 4.1875 C-2.33617187 3.39730469 -1.79734375 2.60710937 -1.2421875 1.79296875 C-0.83226562 1.20128906 -0.42234375 0.60960937 0 0 Z " fill="#2E4615" transform="translate(161,150)"/>
<path d="M0 0 C-1.62378512 4.72373854 -4.10993018 8.94181834 -7 13 C-7.33 13 -7.66 13 -8 13 C-8 11.02 -8 9.04 -8 7 C-7.01 7 -6.02 7 -5 7 C-5 5.68 -5 4.36 -5 3 C-2.64285714 0 -2.64285714 0 0 0 Z " fill="#9DDC3F" transform="translate(164,145)"/>
<path d="M0 0 C0.33 0.99 0.66 1.98 1 3 C1.99 3 2.98 3 4 3 C3.67 4.32 3.34 5.64 3 7 C2.01 6.34 1.02 5.68 0 5 C-0.66 6.98 -1.32 8.96 -2 11 C-3.67830848 7.64338305 -2.6353188 4.63864406 -2 1 C-1.34 0.67 -0.68 0.34 0 0 Z " fill="#ABF631" transform="translate(85,75)"/>
<path d="M0 0 C0.33 0 0.66 0 1 0 C1 2.31 1 4.62 1 7 C1.99 7.33 2.98 7.66 4 8 C3.67 9.32 3.34 10.64 3 12 C1.68 12 0.36 12 -1 12 C-1.14285714 3.42857143 -1.14285714 3.42857143 0 0 Z " fill="#ABFA2D" transform="translate(99,220)"/>
<path d="M0 0 C-1.45044271 4.10958767 -3.51110752 7.43258745 -6 11 C-7.27115705 7.18652885 -6.54905091 5.64026964 -5 2 C-2 0 -2 0 0 0 Z " fill="#A5E444" transform="translate(171,134)"/>
<path d="M0 0 C0.33 0 0.66 0 1 0 C1 2.97 1 5.94 1 9 C0.01 9.495 0.01 9.495 -1 10 C-1.72693904 11.97888961 -2.39816251 13.97954558 -3 16 C-4.49828872 12.11764181 -3.43110582 9.56550712 -2.0625 5.75 C-1.68222656 4.67234375 -1.30195312 3.5946875 -0.91015625 2.484375 C-0.45962891 1.25460938 -0.45962891 1.25460938 0 0 Z " fill="#9DD447" transform="translate(114,159)"/>
<path d="M0 0 C0.97591583 3.38317487 0.85856655 5.5657338 0 9 C-0.66 9 -1.32 9 -2 9 C-2.66 11.64 -3.32 14.28 -4 17 C-5.19332515 12.22669942 -4.39412339 10.71737412 -2.5625 6.25 C-2.08941406 5.07953125 -1.61632812 3.9090625 -1.12890625 2.703125 C-0.75636719 1.81109375 -0.38382812 0.9190625 0 0 Z " fill="#8BC03E" transform="translate(78,93)"/>
<path d="M0 0 C1.3609623 2.7219246 0.70366248 4.1831957 0.0625 7.125 C-0.13214844 8.03507812 -0.32679688 8.94515625 -0.52734375 9.8828125 C-0.68332031 10.58148438 -0.83929688 11.28015625 -1 12 C-1.66 12 -2.32 12 -3 12 C-3.2954439 6.97745369 -2.98514628 4.10457614 0 0 Z " fill="#AEEC4C" transform="translate(136,89)"/>
<path d="M0 0 C1.25127906 3.54667178 0.72285053 5.72253438 -0.4375 9.25 C-0.72496094 10.14203125 -1.01242188 11.0340625 -1.30859375 11.953125 C-1.53675781 12.62859375 -1.76492187 13.3040625 -2 14 C-2.33 14 -2.66 14 -3 14 C-2.88570603 12.22844346 -2.75816963 10.45773771 -2.625 8.6875 C-2.55539063 7.70136719 -2.48578125 6.71523438 -2.4140625 5.69921875 C-2 3 -2 3 0 0 Z " fill="#ADEC46" transform="translate(97,32)"/>
<path d="M0 0 C0.33 0 0.66 0 1 0 C1 1.65 1 3.3 1 5 C1.66 5 2.32 5 3 5 C2.67 5.99 2.34 6.98 2 8 C-0.0625 8.6875 -0.0625 8.6875 -2 9 C-2.20140476 5.37471432 -1.85776765 3.13498292 0 0 Z " fill="#B0F537" transform="translate(104,201)"/>
<path d="M0 0 C0.33 0.66 0.66 1.32 1 2 C-1.19566645 8.47143795 -1.19566645 8.47143795 -4.1875 10.4375 C-5.0846875 10.7159375 -5.0846875 10.7159375 -6 11 C-4.54955729 6.89041233 -2.48889248 3.56741255 0 0 Z " fill="#324B17" transform="translate(143,178)"/>
<path d="M0 0 C0.66 0.33 1.32 0.66 2 1 C0.02 3.97 -1.96 6.94 -4 10 C-5 6 -5 6 -4.00390625 4.296875 C-2.66927083 2.86458333 -1.33463542 1.43229167 0 0 Z " fill="#9DD642" transform="translate(130,196)"/>
<path d="M0 0 C1.32 0 2.64 0 4 0 C4 1.98 4 3.96 4 6 C3.01 6 2.02 6 1 6 C0.67 4.02 0.34 2.04 0 0 Z " fill="#ADFC1C" transform="translate(182,103)"/>
<path d="M0 0 C0.33 0 0.66 0 1 0 C1.125 7.75 1.125 7.75 0 10 C-0.66 10 -1.32 10 -2 10 C-1.125 2.25 -1.125 2.25 0 0 Z " fill="#94CD3E" transform="translate(109,177)"/>
<path d="M0 0 C0.66 0.33 1.32 0.66 2 1 C1.54857119 2.29409592 1.08858979 3.58521059 0.625 4.875 C0.36976562 5.59429687 0.11453125 6.31359375 -0.1484375 7.0546875 C-1 9 -1 9 -3 11 C-2.53199289 6.94393835 -2.12046792 3.53411321 0 0 Z " fill="#B1F63C" transform="translate(113,168)"/>
<path d="M0 0 C2.97 0.495 2.97 0.495 6 1 C5.01 2.98 4.02 4.96 3 7 C2.34 7 1.68 7 1 7 C0.67 4.69 0.34 2.38 0 0 Z " fill="#A0E33B" transform="translate(144,167)"/>
<path d="M0 0 C1.18771723 3.42943519 0.80226223 5.37784675 -0.4375 8.75 C-0.86869141 9.94882813 -0.86869141 9.94882813 -1.30859375 11.171875 C-1.65083984 12.07679688 -1.65083984 12.07679688 -2 13 C-2.33 13 -2.66 13 -3 13 C-3.31563182 7.73946963 -2.66590937 4.55426184 0 0 Z " fill="#3C581C" transform="translate(114,155)"/>
<path d="M0 0 C0.66 0 1.32 0 2 0 C0.8141763 3.37503669 -0.27573689 5.64722731 -3 8 C-2.25 2.25 -2.25 2.25 0 0 Z " fill="#A3DC50" transform="translate(123,206)"/>
<path d="M0 0 C0.33 0.66 0.66 1.32 1 2 C0.22265625 3.9453125 0.22265625 3.9453125 -0.9375 6.125 C-1.31777344 6.84945313 -1.69804688 7.57390625 -2.08984375 8.3203125 C-2.39019531 8.87460937 -2.69054687 9.42890625 -3 10 C-4.26339822 6.20980534 -3.49719015 4.62477616 -2 1 C-1.34 0.67 -0.68 0.34 0 0 Z " fill="#253810" transform="translate(100,17)"/>
<path d="M0 0 C0.66 0 1.32 0 2 0 C1.25 6.75 1.25 6.75 -1 9 C-0.67 6.03 -0.34 3.06 0 0 Z " fill="#A7E542" transform="translate(133,187)"/>
<path d="M0 0 C0.33 0 0.66 0 1 0 C0.75 3.375 0.75 3.375 0 7 C-2.0625 8.4375 -2.0625 8.4375 -4 9 C-3.34 7.35 -2.68 5.7 -2 4 C-1.34 4 -0.68 4 0 4 C0 2.68 0 1.36 0 0 Z " fill="#A5E341" transform="translate(182,112)"/>
<path d="M0 0 C1 2 1 2 0.44140625 3.9453125 C0.15136719 4.66460937 -0.13867188 5.38390625 -0.4375 6.125 C-0.72496094 6.84945312 -1.01242188 7.57390625 -1.30859375 8.3203125 C-1.53675781 8.87460938 -1.76492187 9.42890625 -2 10 C-2.33 10 -2.66 10 -3 10 C-3 7.69 -3 5.38 -3 3 C-2.34 3 -1.68 3 -1 3 C-0.67 2.01 -0.34 1.02 0 0 Z " fill="#88BE3A" transform="translate(146,64)"/>
</svg>
